<?xml version="1.0" encoding="UTF-8"?>
<svg xmlns="http://www.w3.org/2000/svg" xmlns:xlink="http://www.w3.org/1999/xlink" width="24px" height="24px" viewBox="0 0 24 24" version="1.1">
<g id="surface1">
<path style=" stroke:none;fill-rule:nonzero;fill:rgb(0.784314%,0.784314%,0.784314%);fill-opacity:1;" d="M 7.410156 2.578125 C 8.359375 2.574219 9.3125 2.570312 10.261719 2.566406 C 10.375 2.566406 10.488281 2.566406 10.597656 2.566406 C 10.621094 2.566406 10.644531 2.566406 10.667969 2.566406 C 11.027344 2.566406 11.390625 2.5625 11.753906 2.5625 C 12.125 2.558594 12.496094 2.558594 12.867188 2.558594 C 13.097656 2.558594 13.324219 2.558594 13.554688 2.554688 C 13.710938 2.554688 13.867188 2.554688 14.027344 2.554688 C 14.117188 2.554688 14.207031 2.554688 14.296875 2.554688 C 14.382812 2.550781 14.464844 2.550781 14.546875 2.554688 C 14.578125 2.554688 14.605469 2.550781 14.636719 2.550781 C 14.859375 2.546875 14.859375 2.546875 14.957031 2.621094 C 15.003906 2.671875 15.042969 2.722656 15.082031 2.777344 C 15.101562 2.800781 15.121094 2.824219 15.140625 2.84375 C 15.230469 2.941406 15.320312 3.039062 15.40625 3.136719 C 15.453125 3.195312 15.503906 3.246094 15.554688 3.300781 C 15.625 3.378906 15.699219 3.460938 15.765625 3.542969 C 15.816406 3.597656 15.867188 3.652344 15.917969 3.703125 C 15.976562 3.769531 16.039062 3.835938 16.097656 3.90625 C 16.164062 3.984375 16.234375 4.058594 16.304688 4.136719 C 16.394531 4.234375 16.484375 4.332031 16.570312 4.429688 C 16.601562 4.464844 16.632812 4.496094 16.660156 4.53125 C 16.902344 4.796875 17.144531 5.066406 17.386719 5.335938 C 17.402344 5.351562 17.414062 5.367188 17.429688 5.386719 C 17.460938 5.417969 17.492188 5.453125 17.519531 5.484375 C 17.601562 5.578125 17.6875 5.667969 17.769531 5.761719 C 17.84375 5.839844 17.914062 5.917969 17.980469 5.996094 C 18.03125 6.054688 18.082031 6.105469 18.132812 6.160156 C 18.203125 6.238281 18.273438 6.320312 18.34375 6.398438 C 18.394531 6.457031 18.441406 6.507812 18.492188 6.5625 C 18.554688 6.628906 18.617188 6.695312 18.675781 6.765625 C 18.742188 6.84375 18.8125 6.917969 18.882812 6.996094 C 18.972656 7.09375 19.058594 7.191406 19.148438 7.289062 C 19.179688 7.320312 19.207031 7.355469 19.238281 7.390625 C 19.480469 7.65625 19.722656 7.925781 19.964844 8.195312 C 19.976562 8.210938 19.992188 8.226562 20.007812 8.246094 C 20.039062 8.277344 20.066406 8.3125 20.097656 8.34375 C 20.179688 8.4375 20.265625 8.527344 20.347656 8.621094 C 20.417969 8.699219 20.488281 8.777344 20.558594 8.855469 C 20.609375 8.910156 20.65625 8.964844 20.707031 9.019531 C 20.78125 9.097656 20.851562 9.179688 20.921875 9.257812 C 20.972656 9.316406 21.019531 9.367188 21.070312 9.421875 C 21.132812 9.488281 21.191406 9.554688 21.25 9.625 C 21.320312 9.703125 21.390625 9.777344 21.460938 9.855469 C 21.546875 9.953125 21.636719 10.050781 21.726562 10.148438 C 21.753906 10.179688 21.785156 10.214844 21.816406 10.25 C 22.117188 10.582031 22.417969 10.917969 22.722656 11.253906 C 22.738281 11.273438 22.75 11.289062 22.765625 11.304688 C 22.796875 11.339844 22.828125 11.371094 22.855469 11.40625 C 22.9375 11.496094 23.023438 11.589844 23.105469 11.679688 C 23.179688 11.757812 23.25 11.835938 23.316406 11.917969 C 23.347656 11.953125 23.382812 11.984375 23.414062 12.019531 C 23.425781 12.03125 23.433594 12.042969 23.445312 12.054688 C 23.464844 12.074219 23.488281 12.09375 23.507812 12.117188 C 23.578125 12.191406 23.578125 12.191406 23.578125 12.246094 C 23.554688 12.285156 23.53125 12.316406 23.5 12.351562 C 23.480469 12.375 23.480469 12.375 23.460938 12.394531 C 23.4375 12.417969 23.4375 12.417969 23.417969 12.441406 C 23.390625 12.472656 23.363281 12.503906 23.335938 12.53125 C 23.316406 12.554688 23.296875 12.574219 23.277344 12.59375 C 23.226562 12.652344 23.175781 12.707031 23.125 12.765625 C 23.054688 12.84375 22.984375 12.921875 22.914062 13 C 22.863281 13.054688 22.8125 13.109375 22.761719 13.167969 C 22.691406 13.246094 22.621094 13.324219 22.550781 13.402344 C 22.5 13.457031 22.449219 13.511719 22.402344 13.570312 C 22.328125 13.652344 22.25 13.734375 22.175781 13.816406 C 22.109375 13.886719 22.046875 13.957031 21.984375 14.03125 C 21.933594 14.085938 21.886719 14.140625 21.835938 14.195312 C 21.773438 14.261719 21.714844 14.328125 21.65625 14.394531 C 21.585938 14.476562 21.515625 14.550781 21.445312 14.628906 C 21.390625 14.683594 21.339844 14.742188 21.292969 14.796875 C 21.222656 14.875 21.15625 14.953125 21.085938 15.027344 C 20.996094 15.125 20.90625 15.222656 20.820312 15.320312 C 20.789062 15.355469 20.757812 15.390625 20.726562 15.421875 C 20.714844 15.441406 20.699219 15.457031 20.683594 15.472656 L 19.957031 16.277344 C 19.929688 16.3125 19.898438 16.34375 19.867188 16.378906 C 19.785156 16.46875 19.703125 16.5625 19.617188 16.652344 C 19.546875 16.730469 19.476562 16.808594 19.40625 16.890625 C 19.347656 16.957031 19.289062 17.019531 19.230469 17.085938 C 19.175781 17.140625 19.125 17.199219 19.078125 17.253906 C 19.007812 17.335938 18.9375 17.410156 18.867188 17.488281 C 18.816406 17.542969 18.765625 17.601562 18.714844 17.65625 C 18.648438 17.734375 18.578125 17.8125 18.507812 17.886719 C 18.417969 17.984375 18.328125 18.082031 18.242188 18.179688 C 18.210938 18.214844 18.179688 18.25 18.152344 18.28125 C 18.136719 18.296875 18.121094 18.316406 18.105469 18.332031 L 17.199219 19.339844 C 17.167969 19.371094 17.140625 19.40625 17.109375 19.4375 C 17.027344 19.53125 16.945312 19.621094 16.859375 19.714844 C 16.789062 19.792969 16.71875 19.871094 16.648438 19.949219 C 16.589844 20.015625 16.53125 20.082031 16.472656 20.144531 C 16.417969 20.203125 16.367188 20.257812 16.320312 20.316406 C 16.25 20.394531 16.179688 20.472656 16.109375 20.546875 C 16.058594 20.605469 16.007812 20.660156 15.957031 20.71875 C 15.890625 20.796875 15.820312 20.871094 15.75 20.949219 C 15.660156 21.046875 15.570312 21.144531 15.484375 21.242188 C 15.453125 21.273438 15.421875 21.308594 15.394531 21.34375 C 15.378906 21.359375 15.363281 21.375 15.347656 21.394531 C 15.28125 21.46875 15.28125 21.46875 15.210938 21.542969 C 15.195312 21.558594 15.183594 21.578125 15.167969 21.59375 C 15.132812 21.628906 15.101562 21.664062 15.070312 21.699219 C 15.046875 21.726562 15.046875 21.726562 15.019531 21.753906 C 15 21.777344 15 21.777344 14.976562 21.804688 C 14.9375 21.847656 14.9375 21.847656 14.898438 21.90625 C 14.847656 21.914062 14.847656 21.914062 14.777344 21.914062 L 14.609375 21.914062 C 14.578125 21.914062 14.546875 21.914062 14.515625 21.914062 C 14.433594 21.914062 14.347656 21.914062 14.261719 21.914062 C 14.167969 21.914062 14.078125 21.914062 13.984375 21.914062 C 13.828125 21.914062 13.667969 21.914062 13.507812 21.914062 C 13.277344 21.910156 13.046875 21.910156 12.816406 21.910156 C 12.445312 21.910156 12.070312 21.910156 11.695312 21.910156 C 11.332031 21.910156 10.96875 21.910156 10.605469 21.910156 L 10.539062 21.910156 C 10.425781 21.910156 10.316406 21.910156 10.203125 21.910156 C 9.273438 21.910156 8.339844 21.90625 7.410156 21.90625 C 7.425781 21.835938 7.441406 21.808594 7.492188 21.761719 C 7.542969 21.710938 7.589844 21.664062 7.636719 21.609375 C 7.695312 21.539062 7.757812 21.472656 7.820312 21.402344 C 7.882812 21.335938 7.945312 21.269531 8.003906 21.203125 C 8.070312 21.121094 8.144531 21.046875 8.214844 20.96875 C 8.265625 20.914062 8.316406 20.855469 8.367188 20.796875 C 8.433594 20.71875 8.503906 20.644531 8.574219 20.570312 C 8.664062 20.472656 8.75 20.375 8.839844 20.273438 C 8.867188 20.242188 8.898438 20.207031 8.929688 20.175781 C 8.945312 20.15625 8.960938 20.140625 8.976562 20.125 L 9.699219 19.320312 C 9.730469 19.285156 9.757812 19.253906 9.789062 19.21875 C 9.871094 19.128906 9.957031 19.035156 10.039062 18.945312 C 10.109375 18.867188 10.179688 18.789062 10.25 18.707031 C 10.308594 18.640625 10.367188 18.578125 10.429688 18.511719 C 10.480469 18.457031 10.53125 18.398438 10.582031 18.34375 C 10.648438 18.261719 10.71875 18.1875 10.789062 18.109375 C 10.84375 18.054688 10.894531 17.996094 10.941406 17.941406 C 11.011719 17.863281 11.082031 17.785156 11.152344 17.710938 C 11.238281 17.613281 11.328125 17.515625 11.417969 17.417969 C 11.445312 17.382812 11.476562 17.347656 11.507812 17.316406 C 11.523438 17.296875 11.535156 17.28125 11.550781 17.265625 L 12.277344 16.460938 C 12.308594 16.425781 12.335938 16.394531 12.367188 16.359375 C 12.449219 16.269531 12.53125 16.175781 12.617188 16.085938 C 12.6875 16.007812 12.757812 15.929688 12.828125 15.847656 C 12.886719 15.78125 12.945312 15.71875 13.003906 15.652344 C 13.058594 15.597656 13.109375 15.539062 13.15625 15.484375 C 13.226562 15.402344 13.296875 15.328125 13.367188 15.25 C 13.417969 15.195312 13.46875 15.136719 13.519531 15.082031 C 13.589844 15 13.660156 14.925781 13.730469 14.847656 C 13.78125 14.792969 13.832031 14.734375 13.882812 14.679688 C 13.953125 14.59375 14.03125 14.511719 14.105469 14.433594 C 14.171875 14.359375 14.234375 14.289062 14.296875 14.214844 C 14.347656 14.160156 14.398438 14.109375 14.445312 14.054688 C 14.507812 13.988281 14.566406 13.921875 14.628906 13.851562 C 14.695312 13.773438 14.765625 13.695312 14.839844 13.621094 C 14.890625 13.5625 14.941406 13.507812 14.988281 13.449219 C 15.058594 13.371094 15.128906 13.296875 15.199219 13.21875 C 15.285156 13.121094 15.375 13.023438 15.464844 12.925781 C 15.492188 12.890625 15.523438 12.859375 15.554688 12.824219 C 15.574219 12.800781 15.574219 12.800781 15.597656 12.773438 L 15.734375 12.625 C 15.75 12.609375 15.765625 12.589844 15.78125 12.574219 C 15.8125 12.539062 15.84375 12.503906 15.875 12.46875 C 15.898438 12.441406 15.898438 12.441406 15.921875 12.417969 C 15.9375 12.402344 15.953125 12.386719 15.96875 12.367188 C 16.007812 12.320312 16.039062 12.273438 16.066406 12.222656 C 16.058594 12.210938 16.046875 12.203125 16.035156 12.191406 C 15.957031 12.113281 15.878906 12.03125 15.804688 11.945312 C 15.753906 11.886719 15.707031 11.832031 15.65625 11.777344 C 15.59375 11.710938 15.53125 11.644531 15.472656 11.578125 C 15.40625 11.5 15.335938 11.421875 15.265625 11.347656 C 15.175781 11.25 15.089844 11.152344 15 11.054688 C 14.96875 11.019531 14.941406 10.988281 14.910156 10.953125 C 14.605469 10.617188 14.304688 10.28125 14.003906 9.945312 C 13.988281 9.929688 13.972656 9.914062 13.957031 9.894531 C 13.929688 9.863281 13.898438 9.828125 13.867188 9.796875 C 13.785156 9.703125 13.703125 9.613281 13.617188 9.519531 C 13.546875 9.441406 13.476562 9.363281 13.40625 9.285156 C 13.359375 9.230469 13.308594 9.175781 13.257812 9.121094 C 13.1875 9.042969 13.113281 8.960938 13.042969 8.882812 C 12.996094 8.828125 12.945312 8.773438 12.894531 8.71875 C 12.835938 8.652344 12.773438 8.585938 12.714844 8.515625 C 12.648438 8.4375 12.578125 8.363281 12.507812 8.285156 C 12.417969 8.1875 12.328125 8.089844 12.242188 7.992188 C 12.210938 7.960938 12.179688 7.925781 12.152344 7.894531 L 11.425781 7.085938 C 11.410156 7.070312 11.394531 7.054688 11.378906 7.035156 C 11.351562 7.003906 11.320312 6.96875 11.292969 6.9375 C 11.207031 6.84375 11.125 6.753906 11.042969 6.660156 C 10.96875 6.585938 10.898438 6.503906 10.828125 6.425781 C 10.78125 6.371094 10.730469 6.316406 10.679688 6.261719 C 10.609375 6.183594 10.539062 6.101562 10.46875 6.023438 C 10.417969 5.96875 10.367188 5.914062 10.320312 5.859375 C 10.257812 5.792969 10.195312 5.726562 10.136719 5.65625 C 10.070312 5.578125 10 5.503906 9.929688 5.425781 C 9.839844 5.332031 9.753906 5.234375 9.664062 5.132812 C 9.632812 5.101562 9.605469 5.066406 9.574219 5.035156 L 8.667969 4.027344 C 8.644531 4 8.644531 4 8.621094 3.976562 C 8.59375 3.941406 8.5625 3.910156 8.535156 3.878906 C 8.449219 3.785156 8.367188 3.691406 8.28125 3.601562 C 8.210938 3.523438 8.140625 3.445312 8.070312 3.363281 C 8.023438 3.308594 7.972656 3.253906 7.921875 3.203125 C 7.851562 3.121094 7.777344 3.042969 7.710938 2.960938 C 7.679688 2.925781 7.648438 2.894531 7.613281 2.859375 C 7.605469 2.847656 7.59375 2.839844 7.585938 2.828125 C 7.566406 2.804688 7.542969 2.785156 7.523438 2.765625 C 7.46875 2.703125 7.4375 2.652344 7.410156 2.578125 "/>
<path style=" stroke:none;fill-rule:nonzero;fill:rgb(1.176471%,1.176471%,1.176471%);fill-opacity:1;" d="M 7.128906 6.765625 L 7.148438 6.765625 L 7.167969 10.953125 C 7.988281 11.226562 7.988281 11.226562 8.824219 11.503906 C 8.996094 11.5625 9.167969 11.621094 9.34375 11.679688 C 9.5 11.730469 9.5 11.730469 9.65625 11.78125 C 9.722656 11.804688 9.792969 11.828125 9.859375 11.851562 C 10.277344 11.992188 10.695312 12.128906 11.113281 12.261719 L 11.113281 12.320312 C 10.199219 12.628906 9.285156 12.929688 8.367188 13.226562 C 8.351562 13.230469 8.335938 13.238281 8.320312 13.242188 C 8.300781 13.246094 8.285156 13.253906 8.269531 13.257812 C 8.15625 13.296875 8.039062 13.332031 7.921875 13.371094 C 7.835938 13.398438 7.75 13.429688 7.664062 13.457031 C 7.621094 13.46875 7.578125 13.484375 7.535156 13.496094 C 7.480469 13.515625 7.421875 13.535156 7.363281 13.554688 C 7.347656 13.558594 7.328125 13.566406 7.3125 13.570312 C 7.191406 13.609375 7.191406 13.609375 7.148438 13.609375 L 7.148438 17.820312 C 7.035156 17.707031 7.035156 17.707031 6.996094 17.648438 C 6.988281 17.636719 6.980469 17.625 6.96875 17.609375 C 6.960938 17.597656 6.953125 17.585938 6.945312 17.570312 C 6.925781 17.542969 6.90625 17.511719 6.882812 17.484375 C 6.871094 17.460938 6.871094 17.460938 6.855469 17.4375 C 6.8125 17.375 6.765625 17.308594 6.722656 17.242188 C 6.707031 17.222656 6.707031 17.222656 6.695312 17.203125 C 6.597656 17.0625 6.5 16.921875 6.402344 16.78125 C 6.316406 16.660156 6.230469 16.535156 6.144531 16.410156 C 6.066406 16.292969 5.984375 16.175781 5.902344 16.0625 C 5.792969 15.902344 5.683594 15.746094 5.574219 15.589844 C 5.476562 15.441406 5.375 15.292969 5.273438 15.148438 C 5.183594 15.019531 5.09375 14.890625 5.003906 14.761719 C 4.941406 14.671875 4.878906 14.582031 4.816406 14.492188 C 4.792969 14.457031 4.792969 14.457031 4.792969 14.417969 C 4.773438 14.421875 4.757812 14.429688 4.742188 14.433594 C 4.050781 14.671875 3.359375 14.902344 2.667969 15.132812 C 2.492188 15.191406 2.316406 15.25 2.144531 15.308594 C 2.003906 15.355469 1.867188 15.398438 1.730469 15.445312 C 1.648438 15.472656 1.566406 15.5 1.488281 15.527344 C 1.410156 15.550781 1.335938 15.578125 1.257812 15.601562 L 1.175781 15.628906 C 1.136719 15.644531 1.101562 15.65625 1.0625 15.667969 C 1.03125 15.679688 1.03125 15.679688 1 15.691406 C 0.945312 15.703125 0.945312 15.703125 0.886719 15.703125 C 0.917969 15.605469 0.972656 15.53125 1.03125 15.449219 L 1.066406 15.402344 C 1.097656 15.355469 1.132812 15.308594 1.167969 15.261719 L 1.199219 15.214844 C 1.246094 15.15625 1.289062 15.09375 1.332031 15.035156 C 1.40625 14.933594 1.476562 14.832031 1.550781 14.726562 C 1.644531 14.59375 1.738281 14.460938 1.835938 14.332031 C 1.910156 14.226562 1.980469 14.125 2.054688 14.023438 C 2.148438 13.890625 2.242188 13.757812 2.339844 13.625 C 2.421875 13.507812 2.503906 13.394531 2.585938 13.277344 C 2.660156 13.171875 2.730469 13.070312 2.804688 12.96875 C 2.902344 12.835938 3 12.703125 3.09375 12.566406 C 3.109375 12.542969 3.109375 12.542969 3.128906 12.515625 C 3.183594 12.441406 3.234375 12.363281 3.28125 12.28125 C 3.265625 12.261719 3.25 12.242188 3.234375 12.222656 C 3.121094 12.066406 3.003906 11.910156 2.890625 11.75 C 2.832031 11.667969 2.773438 11.585938 2.710938 11.5 C 2.699219 11.488281 2.691406 11.472656 2.679688 11.457031 C 2.65625 11.425781 2.632812 11.394531 2.609375 11.363281 C 2.546875 11.269531 2.480469 11.179688 2.414062 11.089844 C 2.359375 11.011719 2.304688 10.9375 2.246094 10.859375 C 2.140625 10.710938 2.035156 10.5625 1.929688 10.414062 C 1.828125 10.273438 1.726562 10.132812 1.625 9.992188 C 1.582031 9.933594 1.535156 9.871094 1.492188 9.808594 C 1.46875 9.78125 1.449219 9.75 1.425781 9.71875 C 1.371094 9.644531 1.316406 9.566406 1.261719 9.492188 C 1.25 9.476562 1.238281 9.460938 1.230469 9.445312 C 1.207031 9.414062 1.183594 9.382812 1.164062 9.355469 C 1.109375 9.28125 1.054688 9.207031 1 9.132812 C 0.992188 9.121094 0.980469 9.105469 0.96875 9.09375 C 0.949219 9.066406 0.929688 9.039062 0.910156 9.015625 C 0.84375 8.925781 0.84375 8.925781 0.84375 8.859375 C 1.035156 8.90625 1.222656 8.96875 1.40625 9.03125 C 1.441406 9.042969 1.476562 9.054688 1.511719 9.0625 C 1.601562 9.09375 1.695312 9.125 1.789062 9.15625 C 1.882812 9.1875 1.980469 9.21875 2.078125 9.253906 L 2.511719 9.394531 C 2.804688 9.492188 3.097656 9.589844 3.390625 9.683594 C 3.425781 9.695312 3.425781 9.695312 3.457031 9.707031 L 3.726562 9.796875 C 3.960938 9.875 4.195312 9.949219 4.425781 10.027344 C 4.464844 10.039062 4.503906 10.050781 4.539062 10.0625 L 4.792969 10.148438 C 4.796875 10.136719 4.804688 10.125 4.808594 10.109375 C 4.914062 9.90625 5.066406 9.71875 5.199219 9.53125 C 5.277344 9.421875 5.355469 9.308594 5.433594 9.195312 C 5.445312 9.175781 5.460938 9.15625 5.472656 9.136719 C 5.5 9.097656 5.527344 9.058594 5.554688 9.019531 C 5.625 8.921875 5.691406 8.824219 5.757812 8.726562 C 5.785156 8.691406 5.8125 8.652344 5.839844 8.613281 C 6.320312 7.917969 6.320312 7.917969 6.363281 7.859375 L 6.648438 7.449219 C 6.675781 7.410156 6.703125 7.371094 6.730469 7.328125 C 6.746094 7.3125 6.757812 7.292969 6.773438 7.273438 C 6.863281 7.140625 6.953125 7.007812 7.042969 6.878906 C 7.105469 6.789062 7.105469 6.789062 7.128906 6.765625 "/>
<path style=" stroke:none;fill-rule:nonzero;fill:rgb(80.000001%,80.000001%,80.000001%);fill-opacity:1;" d="M 4.792969 14.417969 C 4.085938 14.660156 3.378906 14.894531 2.667969 15.132812 C 2.492188 15.191406 2.316406 15.25 2.144531 15.308594 C 2.003906 15.355469 1.867188 15.398438 1.730469 15.445312 C 1.648438 15.472656 1.566406 15.5 1.488281 15.527344 C 1.410156 15.550781 1.335938 15.578125 1.257812 15.601562 L 1.175781 15.628906 C 1.136719 15.644531 1.101562 15.65625 1.0625 15.667969 L 1 15.691406 C 0.945312 15.703125 0.945312 15.703125 0.886719 15.703125 L 0.925781 15.605469 L 0.964844 15.644531 C 0.984375 15.636719 1.003906 15.632812 1.023438 15.625 C 1.492188 15.46875 1.960938 15.3125 2.425781 15.15625 C 2.652344 15.078125 2.878906 15.003906 3.105469 14.925781 C 3.300781 14.863281 3.5 14.796875 3.695312 14.730469 C 3.800781 14.695312 3.90625 14.660156 4.007812 14.625 C 4.105469 14.59375 4.207031 14.558594 4.304688 14.527344 C 4.339844 14.515625 4.375 14.503906 4.410156 14.488281 C 4.460938 14.472656 4.511719 14.457031 4.558594 14.441406 C 4.574219 14.4375 4.589844 14.429688 4.601562 14.425781 C 4.671875 14.402344 4.722656 14.386719 4.792969 14.417969 "/>
<path style=" stroke:none;fill-rule:nonzero;fill:rgb(28.235295%,28.235295%,28.235295%);fill-opacity:1;" d="M 7.128906 6.765625 L 7.148438 6.765625 C 7.148438 6.785156 7.148438 6.808594 7.148438 6.832031 C 7.148438 7.355469 7.152344 7.878906 7.152344 8.402344 C 7.152344 8.652344 7.152344 8.90625 7.15625 9.160156 C 7.15625 9.382812 7.15625 9.601562 7.15625 9.824219 C 7.15625 9.941406 7.15625 10.054688 7.15625 10.171875 C 7.15625 10.28125 7.15625 10.394531 7.160156 10.503906 C 7.160156 10.542969 7.160156 10.582031 7.160156 10.625 C 7.160156 10.679688 7.160156 10.734375 7.160156 10.789062 C 7.160156 10.804688 7.160156 10.820312 7.160156 10.839844 C 7.160156 10.886719 7.160156 10.886719 7.167969 10.953125 L 7.226562 10.992188 L 7.128906 10.972656 L 7.105469 6.90625 C 7.058594 6.9375 7.058594 6.9375 7.007812 6.964844 C 7.035156 6.886719 7.070312 6.828125 7.128906 6.765625 "/>
<path style=" stroke:none;fill-rule:nonzero;fill:rgb(38.431373%,38.431373%,38.431373%);fill-opacity:1;" d="M 0.84375 8.859375 C 1.015625 8.902344 1.183594 8.957031 1.351562 9.015625 C 1.378906 9.023438 1.402344 9.03125 1.429688 9.039062 C 1.488281 9.058594 1.550781 9.082031 1.609375 9.101562 L 1.609375 9.121094 C 1.464844 9.109375 1.335938 9.066406 1.199219 9.019531 C 1.15625 9.003906 1.113281 8.988281 1.070312 8.972656 C 1.050781 8.96875 1.03125 8.960938 1.011719 8.953125 C 0.96875 8.9375 0.96875 8.9375 0.925781 8.941406 L 0.945312 9.019531 C 0.894531 8.972656 0.894531 8.972656 0.84375 8.917969 Z M 0.84375 8.859375 "/>
<path style=" stroke:none;fill-rule:nonzero;fill:rgb(65.882355%,65.882355%,65.882355%);fill-opacity:1;" d="M 0.84375 8.859375 L 1.007812 8.898438 L 0.925781 8.941406 L 0.945312 9.019531 C 0.894531 8.972656 0.894531 8.972656 0.84375 8.917969 Z M 0.84375 8.859375 "/>
</g>
</svg>
